<mxfile host="app.diagrams.net" modified="2024-05-14T17:03:06.419Z" agent="Mozilla/5.0 (Windows NT 10.0; Win64; x64) AppleWebKit/537.36 (KHTML, like Gecko) Chrome/124.0.0.0 Safari/537.36" etag="2bLAYPGZ383_y4bToBsZ" version="24.3.1" type="google" pages="5">
  <diagram name="Д_состояний_заказа" id="BanBGNF2Pb0GykZZQIJD">
    <mxGraphModel grid="1" page="1" gridSize="10" guides="1" tooltips="1" connect="1" arrows="1" fold="1" pageScale="1" pageWidth="827" pageHeight="1169" math="0" shadow="0">
      <root>
        <mxCell id="0" />
        <mxCell id="1" parent="0" />
        <mxCell id="2jJZK-FFE5HAWp4t9ocm-4" value="" style="endArrow=classic;html=1;rounded=0;" edge="1" parent="1">
          <mxGeometry width="50" height="50" relative="1" as="geometry">
            <mxPoint x="99.75999999999999" y="320" as="sourcePoint" />
            <mxPoint x="99.75999999999999" y="360" as="targetPoint" />
          </mxGeometry>
        </mxCell>
        <mxCell id="2jJZK-FFE5HAWp4t9ocm-2" value="" style="shape=waypoint;sketch=0;fillStyle=solid;size=6;pointerEvents=1;points=[];fillColor=none;resizable=0;rotatable=0;perimeter=centerPerimeter;snapToPoint=1;strokeWidth=5;" vertex="1" parent="1">
          <mxGeometry x="90" y="310" width="20" height="20" as="geometry" />
        </mxCell>
        <mxCell id="2jJZK-FFE5HAWp4t9ocm-6" value="" style="rounded=1;whiteSpace=wrap;html=1;" vertex="1" parent="1">
          <mxGeometry x="60" y="360" width="80" height="40" as="geometry" />
        </mxCell>
        <mxCell id="2jJZK-FFE5HAWp4t9ocm-7" value="Оформлен" style="text;html=1;align=center;verticalAlign=middle;whiteSpace=wrap;rounded=0;" vertex="1" parent="1">
          <mxGeometry x="70" y="365" width="60" height="30" as="geometry" />
        </mxCell>
        <mxCell id="2jJZK-FFE5HAWp4t9ocm-14" value="оплата" style="text;html=1;align=center;verticalAlign=middle;whiteSpace=wrap;rounded=0;" vertex="1" parent="1">
          <mxGeometry x="170" y="350" width="60" height="30" as="geometry" />
        </mxCell>
        <mxCell id="2jJZK-FFE5HAWp4t9ocm-15" value="" style="endArrow=classic;html=1;rounded=0;exitX=1;exitY=0.5;exitDx=0;exitDy=0;entryX=0;entryY=0.5;entryDx=0;entryDy=0;" edge="1" parent="1">
          <mxGeometry width="50" height="50" relative="1" as="geometry">
            <mxPoint x="520" y="380" as="sourcePoint" />
            <mxPoint x="640" y="380" as="targetPoint" />
          </mxGeometry>
        </mxCell>
        <mxCell id="2jJZK-FFE5HAWp4t9ocm-16" value="доставка" style="text;html=1;align=center;verticalAlign=middle;whiteSpace=wrap;rounded=0;" vertex="1" parent="1">
          <mxGeometry x="550" y="350" width="60" height="30" as="geometry" />
        </mxCell>
        <mxCell id="2jJZK-FFE5HAWp4t9ocm-19" value="" style="rounded=1;whiteSpace=wrap;html=1;" vertex="1" parent="1">
          <mxGeometry x="640" y="360" width="80" height="40" as="geometry" />
        </mxCell>
        <mxCell id="2jJZK-FFE5HAWp4t9ocm-18" value="Доставлен" style="text;html=1;align=center;verticalAlign=middle;whiteSpace=wrap;rounded=0;" vertex="1" parent="1">
          <mxGeometry x="650" y="365" width="60" height="30" as="geometry" />
        </mxCell>
        <mxCell id="2jJZK-FFE5HAWp4t9ocm-21" value="" style="endArrow=classic;html=1;rounded=0;exitX=0.5;exitY=0;exitDx=0;exitDy=0;" edge="1" parent="1" source="2jJZK-FFE5HAWp4t9ocm-19">
          <mxGeometry width="50" height="50" relative="1" as="geometry">
            <mxPoint x="461.8" y="270" as="sourcePoint" />
            <mxPoint x="680" y="330" as="targetPoint" />
          </mxGeometry>
        </mxCell>
        <mxCell id="2jJZK-FFE5HAWp4t9ocm-22" value="" style="ellipse;shape=doubleEllipse;whiteSpace=wrap;html=1;aspect=fixed;" vertex="1" parent="1">
          <mxGeometry x="670" y="310" width="20" height="20" as="geometry" />
        </mxCell>
        <mxCell id="2jJZK-FFE5HAWp4t9ocm-23" value="" style="shape=waypoint;sketch=0;fillStyle=solid;size=6;pointerEvents=1;points=[];fillColor=none;resizable=0;rotatable=0;perimeter=centerPerimeter;snapToPoint=1;strokeWidth=5;" vertex="1" parent="1">
          <mxGeometry x="670" y="310" width="20" height="20" as="geometry" />
        </mxCell>
        <mxCell id="TXfK-PymPlu1XvL84PZX-2" value="" style="endArrow=classic;html=1;rounded=0;exitX=1;exitY=0.5;exitDx=0;exitDy=0;entryX=0;entryY=0.5;entryDx=0;entryDy=0;" edge="1" parent="1" source="2jJZK-FFE5HAWp4t9ocm-6" target="2jJZK-FFE5HAWp4t9ocm-13">
          <mxGeometry width="50" height="50" relative="1" as="geometry">
            <mxPoint x="140" y="380" as="sourcePoint" />
            <mxPoint x="380" y="410" as="targetPoint" />
          </mxGeometry>
        </mxCell>
        <mxCell id="TXfK-PymPlu1XvL84PZX-1" value="Собран" style="rounded=1;whiteSpace=wrap;html=1;" vertex="1" parent="1">
          <mxGeometry x="440" y="360" width="80" height="40" as="geometry" />
        </mxCell>
        <mxCell id="TXfK-PymPlu1XvL84PZX-3" value="" style="endArrow=classic;html=1;rounded=0;exitX=1;exitY=0.5;exitDx=0;exitDy=0;entryX=0;entryY=0.5;entryDx=0;entryDy=0;" edge="1" parent="1" source="2jJZK-FFE5HAWp4t9ocm-13" target="TXfK-PymPlu1XvL84PZX-1">
          <mxGeometry width="50" height="50" relative="1" as="geometry">
            <mxPoint x="290" y="380" as="sourcePoint" />
            <mxPoint x="430" y="380" as="targetPoint" />
          </mxGeometry>
        </mxCell>
        <mxCell id="2jJZK-FFE5HAWp4t9ocm-13" value="" style="rounded=1;whiteSpace=wrap;html=1;" vertex="1" parent="1">
          <mxGeometry x="260" y="360" width="80" height="40" as="geometry" />
        </mxCell>
        <mxCell id="2jJZK-FFE5HAWp4t9ocm-12" value="Оплачен" style="text;html=1;align=center;verticalAlign=middle;whiteSpace=wrap;rounded=0;" vertex="1" parent="1">
          <mxGeometry x="270" y="365" width="60" height="30" as="geometry" />
        </mxCell>
        <mxCell id="TXfK-PymPlu1XvL84PZX-5" value="готовится" style="text;html=1;align=center;verticalAlign=middle;whiteSpace=wrap;rounded=0;" vertex="1" parent="1">
          <mxGeometry x="360" y="350" width="60" height="30" as="geometry" />
        </mxCell>
      </root>
    </mxGraphModel>
  </diagram>
  <diagram id="wNV9kwCmInu46yoBs2eH" name="Д_вариантов_исп">
    <mxGraphModel grid="1" page="1" gridSize="10" guides="1" tooltips="1" connect="1" arrows="1" fold="1" pageScale="1" pageWidth="827" pageHeight="1169" math="0" shadow="0">
      <root>
        <mxCell id="0" />
        <mxCell id="1" parent="0" />
        <mxCell id="8y_LQ60KS55qP5UuEYyu-1" value="Курьер" style="shape=umlActor;verticalLabelPosition=bottom;verticalAlign=top;html=1;" vertex="1" parent="1">
          <mxGeometry x="220" y="130" width="30" height="60" as="geometry" />
        </mxCell>
        <mxCell id="8y_LQ60KS55qP5UuEYyu-2" value="Клиент" style="shape=umlActor;verticalLabelPosition=bottom;verticalAlign=top;html=1;outlineConnect=0;" vertex="1" parent="1">
          <mxGeometry x="220" y="340" width="30" height="60" as="geometry" />
        </mxCell>
        <mxCell id="8y_LQ60KS55qP5UuEYyu-3" value="Приложение" style="shape=umlActor;verticalLabelPosition=bottom;verticalAlign=top;html=1;outlineConnect=0;" vertex="1" parent="1">
          <mxGeometry x="650" y="230" width="30" height="60" as="geometry" />
        </mxCell>
        <mxCell id="8y_LQ60KS55qP5UuEYyu-9" value="uc Use Cases" style="shape=umlFrame;whiteSpace=wrap;html=1;pointerEvents=0;width=70;height=30;" vertex="1" parent="1">
          <mxGeometry x="150" y="20" width="570" height="510" as="geometry" />
        </mxCell>
        <mxCell id="8y_LQ60KS55qP5UuEYyu-10" value="" style="swimlane;startSize=0;" vertex="1" parent="1">
          <mxGeometry x="300" y="70" width="315" height="380" as="geometry" />
        </mxCell>
        <mxCell id="8y_LQ60KS55qP5UuEYyu-12" value="Система доставки еды через мобильное приложение" style="text;html=1;align=center;verticalAlign=middle;whiteSpace=wrap;rounded=0;" vertex="1" parent="8y_LQ60KS55qP5UuEYyu-10">
          <mxGeometry x="85" y="10" width="145" height="30" as="geometry" />
        </mxCell>
        <mxCell id="8y_LQ60KS55qP5UuEYyu-20" value="" style="ellipse;whiteSpace=wrap;html=1;" vertex="1" parent="8y_LQ60KS55qP5UuEYyu-10">
          <mxGeometry x="135" y="100" width="90" height="60" as="geometry" />
        </mxCell>
        <mxCell id="8y_LQ60KS55qP5UuEYyu-29" value="Подбор курьера и сборка заказа" style="text;html=1;align=center;verticalAlign=middle;whiteSpace=wrap;rounded=0;fontSize=9;" vertex="1" parent="8y_LQ60KS55qP5UuEYyu-10">
          <mxGeometry x="130" y="115" width="100" height="30" as="geometry" />
        </mxCell>
        <mxCell id="8y_LQ60KS55qP5UuEYyu-36" value="" style="ellipse;whiteSpace=wrap;html=1;" vertex="1" parent="8y_LQ60KS55qP5UuEYyu-10">
          <mxGeometry x="130" y="180" width="90" height="60" as="geometry" />
        </mxCell>
        <mxCell id="8y_LQ60KS55qP5UuEYyu-28" value="Оформление заказа" style="text;html=1;align=center;verticalAlign=middle;whiteSpace=wrap;rounded=0;" vertex="1" parent="8y_LQ60KS55qP5UuEYyu-10">
          <mxGeometry x="145" y="195" width="60" height="30" as="geometry" />
        </mxCell>
        <mxCell id="8y_LQ60KS55qP5UuEYyu-35" value="" style="ellipse;whiteSpace=wrap;html=1;" vertex="1" parent="8y_LQ60KS55qP5UuEYyu-10">
          <mxGeometry x="26" y="260" width="90" height="60" as="geometry" />
        </mxCell>
        <mxCell id="8y_LQ60KS55qP5UuEYyu-32" value="Наполнение корзины" style="text;html=1;align=center;verticalAlign=middle;whiteSpace=wrap;rounded=0;fontSize=11;" vertex="1" parent="8y_LQ60KS55qP5UuEYyu-10">
          <mxGeometry x="48.5" y="280" width="45" height="20" as="geometry" />
        </mxCell>
        <mxCell id="8y_LQ60KS55qP5UuEYyu-34" value="" style="ellipse;whiteSpace=wrap;html=1;" vertex="1" parent="8y_LQ60KS55qP5UuEYyu-10">
          <mxGeometry x="20" y="70" width="90" height="60" as="geometry" />
        </mxCell>
        <mxCell id="8y_LQ60KS55qP5UuEYyu-31" value="Доставка заказа" style="text;html=1;align=center;verticalAlign=middle;whiteSpace=wrap;rounded=0;" vertex="1" parent="8y_LQ60KS55qP5UuEYyu-10">
          <mxGeometry x="35" y="85" width="60" height="30" as="geometry" />
        </mxCell>
        <mxCell id="8y_LQ60KS55qP5UuEYyu-33" value="" style="ellipse;whiteSpace=wrap;html=1;" vertex="1" parent="8y_LQ60KS55qP5UuEYyu-10">
          <mxGeometry x="24" y="160" width="90" height="60" as="geometry" />
        </mxCell>
        <mxCell id="8y_LQ60KS55qP5UuEYyu-41" value="Оплата заказа" style="text;html=1;align=center;verticalAlign=middle;whiteSpace=wrap;rounded=0;" vertex="1" parent="8y_LQ60KS55qP5UuEYyu-10">
          <mxGeometry x="41" y="175" width="60" height="30" as="geometry" />
        </mxCell>
        <mxCell id="8y_LQ60KS55qP5UuEYyu-46" value="подтверждение заказа" style="text;html=1;align=center;verticalAlign=middle;whiteSpace=wrap;rounded=0;rotation=-13;" vertex="1" parent="8y_LQ60KS55qP5UuEYyu-10">
          <mxGeometry x="230" y="195" width="110" height="30" as="geometry" />
        </mxCell>
        <mxCell id="8y_LQ60KS55qP5UuEYyu-39" value="" style="endArrow=none;html=1;rounded=0;entryX=1;entryY=0.5;entryDx=0;entryDy=0;" edge="1" parent="8y_LQ60KS55qP5UuEYyu-10" target="8y_LQ60KS55qP5UuEYyu-20">
          <mxGeometry width="50" height="50" relative="1" as="geometry">
            <mxPoint x="350" y="180" as="sourcePoint" />
            <mxPoint x="230" y="130" as="targetPoint" />
          </mxGeometry>
        </mxCell>
        <mxCell id="8y_LQ60KS55qP5UuEYyu-51" value="зависит" style="html=1;verticalAlign=bottom;endArrow=open;dashed=1;endSize=8;curved=0;rounded=0;entryX=1;entryY=0.5;entryDx=0;entryDy=0;exitX=0.5;exitY=0;exitDx=0;exitDy=0;" edge="1" parent="8y_LQ60KS55qP5UuEYyu-10" source="8y_LQ60KS55qP5UuEYyu-20" target="8y_LQ60KS55qP5UuEYyu-34">
          <mxGeometry relative="1" as="geometry">
            <mxPoint x="173.5" y="70" as="sourcePoint" />
            <mxPoint x="93.5" y="70" as="targetPoint" />
          </mxGeometry>
        </mxCell>
        <mxCell id="8y_LQ60KS55qP5UuEYyu-52" value="зависит" style="html=1;verticalAlign=bottom;endArrow=open;dashed=1;endSize=8;curved=0;rounded=0;entryX=0;entryY=1;entryDx=0;entryDy=0;exitX=0.953;exitY=0.263;exitDx=0;exitDy=0;exitPerimeter=0;" edge="1" parent="8y_LQ60KS55qP5UuEYyu-10" source="8y_LQ60KS55qP5UuEYyu-35" target="8y_LQ60KS55qP5UuEYyu-36">
          <mxGeometry relative="1" as="geometry">
            <mxPoint x="205" y="280" as="sourcePoint" />
            <mxPoint x="135" y="280" as="targetPoint" />
          </mxGeometry>
        </mxCell>
        <mxCell id="8y_LQ60KS55qP5UuEYyu-37" value="" style="endArrow=none;html=1;rounded=0;exitX=1;exitY=0.3333333333333333;exitDx=0;exitDy=0;exitPerimeter=0;entryX=0;entryY=0.5;entryDx=0;entryDy=0;" edge="1" parent="1" source="8y_LQ60KS55qP5UuEYyu-2" target="8y_LQ60KS55qP5UuEYyu-35">
          <mxGeometry width="50" height="50" relative="1" as="geometry">
            <mxPoint x="360" y="310" as="sourcePoint" />
            <mxPoint x="410" y="260" as="targetPoint" />
          </mxGeometry>
        </mxCell>
        <mxCell id="8y_LQ60KS55qP5UuEYyu-38" value="" style="endArrow=none;html=1;rounded=0;exitX=0;exitY=0.5;exitDx=0;exitDy=0;entryX=1;entryY=0.3333333333333333;entryDx=0;entryDy=0;entryPerimeter=0;" edge="1" parent="1" source="8y_LQ60KS55qP5UuEYyu-36" target="8y_LQ60KS55qP5UuEYyu-2">
          <mxGeometry width="50" height="50" relative="1" as="geometry">
            <mxPoint x="260" y="370" as="sourcePoint" />
            <mxPoint x="336" y="370" as="targetPoint" />
          </mxGeometry>
        </mxCell>
        <mxCell id="8y_LQ60KS55qP5UuEYyu-40" value="" style="endArrow=none;html=1;rounded=0;entryX=0;entryY=0.3333333333333333;entryDx=0;entryDy=0;entryPerimeter=0;exitX=1;exitY=0.5;exitDx=0;exitDy=0;" edge="1" parent="1" source="8y_LQ60KS55qP5UuEYyu-36" target="8y_LQ60KS55qP5UuEYyu-3">
          <mxGeometry width="50" height="50" relative="1" as="geometry">
            <mxPoint x="540" y="300" as="sourcePoint" />
            <mxPoint x="590" y="250" as="targetPoint" />
          </mxGeometry>
        </mxCell>
        <mxCell id="8y_LQ60KS55qP5UuEYyu-42" value="" style="endArrow=none;html=1;rounded=0;exitX=0;exitY=0.5;exitDx=0;exitDy=0;entryX=1;entryY=0.3333333333333333;entryDx=0;entryDy=0;entryPerimeter=0;" edge="1" parent="1" source="8y_LQ60KS55qP5UuEYyu-34" target="8y_LQ60KS55qP5UuEYyu-1">
          <mxGeometry width="50" height="50" relative="1" as="geometry">
            <mxPoint x="200" y="100" as="sourcePoint" />
            <mxPoint x="200" y="340" as="targetPoint" />
          </mxGeometry>
        </mxCell>
        <mxCell id="8y_LQ60KS55qP5UuEYyu-43" value="" style="endArrow=none;html=1;rounded=0;exitX=0;exitY=0.5;exitDx=0;exitDy=0;" edge="1" parent="1" source="8y_LQ60KS55qP5UuEYyu-33">
          <mxGeometry width="50" height="50" relative="1" as="geometry">
            <mxPoint x="330" y="260" as="sourcePoint" />
            <mxPoint x="250" y="360" as="targetPoint" />
          </mxGeometry>
        </mxCell>
        <mxCell id="8y_LQ60KS55qP5UuEYyu-44" value="" style="endArrow=none;html=1;rounded=0;exitX=0;exitY=0.5;exitDx=0;exitDy=0;" edge="1" parent="1" source="8y_LQ60KS55qP5UuEYyu-33">
          <mxGeometry width="50" height="50" relative="1" as="geometry">
            <mxPoint x="340" y="190" as="sourcePoint" />
            <mxPoint x="250" y="150" as="targetPoint" />
          </mxGeometry>
        </mxCell>
        <mxCell id="8y_LQ60KS55qP5UuEYyu-45" value="прием оплаты" style="text;html=1;align=center;verticalAlign=middle;whiteSpace=wrap;rounded=0;rotation=56;" vertex="1" parent="1">
          <mxGeometry x="238.5" y="185" width="110" height="30" as="geometry" />
        </mxCell>
      </root>
    </mxGraphModel>
  </diagram>
  <diagram id="4r8OwJRfkJsXzGN_ZaWj" name="Д_последовательности">
    <mxGraphModel grid="1" page="1" gridSize="10" guides="1" tooltips="1" connect="1" arrows="1" fold="1" pageScale="1" pageWidth="827" pageHeight="1169" math="0" shadow="0">
      <root>
        <mxCell id="0" />
        <mxCell id="1" parent="0" />
        <mxCell id="vL4cAA8MUN_c-u1Q_6qU-2" value=":Клиент" style="html=1;whiteSpace=wrap;" vertex="1" parent="1">
          <mxGeometry x="180" y="320" width="110" height="50" as="geometry" />
        </mxCell>
        <mxCell id="vL4cAA8MUN_c-u1Q_6qU-3" value=":Курьер" style="html=1;whiteSpace=wrap;" vertex="1" parent="1">
          <mxGeometry x="380" y="320" width="110" height="50" as="geometry" />
        </mxCell>
        <mxCell id="vL4cAA8MUN_c-u1Q_6qU-4" value=":Приложение" style="html=1;whiteSpace=wrap;" vertex="1" parent="1">
          <mxGeometry x="540" y="320" width="110" height="50" as="geometry" />
        </mxCell>
        <mxCell id="vL4cAA8MUN_c-u1Q_6qU-5" value="" style="shape=umlActor;verticalLabelPosition=bottom;verticalAlign=top;html=1;" vertex="1" parent="1">
          <mxGeometry x="220" y="250" width="30" height="60" as="geometry" />
        </mxCell>
        <mxCell id="vL4cAA8MUN_c-u1Q_6qU-7" value="" style="shape=umlActor;verticalLabelPosition=bottom;verticalAlign=top;html=1;" vertex="1" parent="1">
          <mxGeometry x="420" y="250" width="30" height="60" as="geometry" />
        </mxCell>
        <mxCell id="vL4cAA8MUN_c-u1Q_6qU-8" value="" style="endArrow=none;dashed=1;html=1;rounded=0;" edge="1" parent="1">
          <mxGeometry width="50" height="50" relative="1" as="geometry">
            <mxPoint x="240" y="620" as="sourcePoint" />
            <mxPoint x="240" y="370" as="targetPoint" />
          </mxGeometry>
        </mxCell>
        <mxCell id="vL4cAA8MUN_c-u1Q_6qU-9" value="" style="endArrow=none;dashed=1;html=1;rounded=0;" edge="1" parent="1">
          <mxGeometry width="50" height="50" relative="1" as="geometry">
            <mxPoint x="440" y="620" as="sourcePoint" />
            <mxPoint x="440" y="370" as="targetPoint" />
          </mxGeometry>
        </mxCell>
        <mxCell id="vL4cAA8MUN_c-u1Q_6qU-10" value="" style="endArrow=none;dashed=1;html=1;rounded=0;" edge="1" parent="1">
          <mxGeometry width="50" height="50" relative="1" as="geometry">
            <mxPoint x="600" y="620" as="sourcePoint" />
            <mxPoint x="600" y="370" as="targetPoint" />
          </mxGeometry>
        </mxCell>
        <mxCell id="vL4cAA8MUN_c-u1Q_6qU-11" value="" style="endArrow=classic;html=1;rounded=0;" edge="1" parent="1">
          <mxGeometry width="50" height="50" relative="1" as="geometry">
            <mxPoint x="240" y="420" as="sourcePoint" />
            <mxPoint x="600" y="420" as="targetPoint" />
          </mxGeometry>
        </mxCell>
        <mxCell id="vL4cAA8MUN_c-u1Q_6qU-12" value="оплата заказа" style="text;html=1;align=center;verticalAlign=middle;whiteSpace=wrap;rounded=0;" vertex="1" parent="1">
          <mxGeometry x="290" y="390" width="100" height="30" as="geometry" />
        </mxCell>
        <mxCell id="vL4cAA8MUN_c-u1Q_6qU-14" value="" style="endArrow=classic;html=1;rounded=0;" edge="1" parent="1">
          <mxGeometry width="50" height="50" relative="1" as="geometry">
            <mxPoint x="600" y="460" as="sourcePoint" />
            <mxPoint x="440" y="460" as="targetPoint" />
          </mxGeometry>
        </mxCell>
        <mxCell id="vL4cAA8MUN_c-u1Q_6qU-15" value="создание и выдача задачи" style="text;html=1;align=center;verticalAlign=middle;whiteSpace=wrap;rounded=0;fontSize=11;" vertex="1" parent="1">
          <mxGeometry x="440" y="430" width="170" height="30" as="geometry" />
        </mxCell>
        <mxCell id="vL4cAA8MUN_c-u1Q_6qU-16" value="" style="endArrow=classic;html=1;rounded=0;" edge="1" parent="1">
          <mxGeometry width="50" height="50" relative="1" as="geometry">
            <mxPoint x="440" y="490" as="sourcePoint" />
            <mxPoint x="240" y="490" as="targetPoint" />
          </mxGeometry>
        </mxCell>
        <mxCell id="vL4cAA8MUN_c-u1Q_6qU-17" value="доставка" style="text;html=1;align=center;verticalAlign=middle;whiteSpace=wrap;rounded=0;fontSize=11;" vertex="1" parent="1">
          <mxGeometry x="255" y="460" width="170" height="30" as="geometry" />
        </mxCell>
        <mxCell id="vL4cAA8MUN_c-u1Q_6qU-18" value="закрытие задачи" style="text;html=1;align=center;verticalAlign=middle;whiteSpace=wrap;rounded=0;fontSize=11;" vertex="1" parent="1">
          <mxGeometry x="440" y="500" width="170" height="30" as="geometry" />
        </mxCell>
        <mxCell id="vL4cAA8MUN_c-u1Q_6qU-19" value="" style="endArrow=classic;html=1;rounded=0;" edge="1" parent="1">
          <mxGeometry width="50" height="50" relative="1" as="geometry">
            <mxPoint x="440" y="530" as="sourcePoint" />
            <mxPoint x="600" y="530" as="targetPoint" />
          </mxGeometry>
        </mxCell>
        <mxCell id="vL4cAA8MUN_c-u1Q_6qU-20" value="" style="endArrow=classic;html=1;rounded=0;" edge="1" parent="1">
          <mxGeometry width="50" height="50" relative="1" as="geometry">
            <mxPoint x="240" y="580" as="sourcePoint" />
            <mxPoint x="600" y="580" as="targetPoint" />
          </mxGeometry>
        </mxCell>
        <mxCell id="vL4cAA8MUN_c-u1Q_6qU-22" value="подтверждение получения заказа" style="text;html=1;align=center;verticalAlign=middle;whiteSpace=wrap;rounded=0;fontSize=11;" vertex="1" parent="1">
          <mxGeometry x="247.5" y="550" width="185" height="30" as="geometry" />
        </mxCell>
      </root>
    </mxGraphModel>
  </diagram>
  <diagram id="f2T0Bu0CJsvNI77l1Ars" name="Д_деятельности">
    <mxGraphModel grid="1" page="1" gridSize="10" guides="1" tooltips="1" connect="1" arrows="1" fold="1" pageScale="1" pageWidth="827" pageHeight="1169" math="0" shadow="0">
      <root>
        <mxCell id="0" />
        <mxCell id="1" parent="0" />
        <mxCell id="da8WZ0yRhRTzq29A2Kj0-1" value="Наполнение корзины" style="rounded=1;whiteSpace=wrap;html=1;" vertex="1" parent="1">
          <mxGeometry x="369" y="276" width="120" height="60" as="geometry" />
        </mxCell>
        <mxCell id="da8WZ0yRhRTzq29A2Kj0-2" value="" style="html=1;verticalAlign=bottom;startArrow=circle;startFill=1;endArrow=open;startSize=6;endSize=8;curved=0;rounded=0;" edge="1" parent="1">
          <mxGeometry width="80" relative="1" as="geometry">
            <mxPoint x="259" y="306" as="sourcePoint" />
            <mxPoint x="369" y="305.5" as="targetPoint" />
          </mxGeometry>
        </mxCell>
        <mxCell id="da8WZ0yRhRTzq29A2Kj0-3" value="" style="endArrow=classic;html=1;rounded=0;exitX=0.5;exitY=1;exitDx=0;exitDy=0;" edge="1" parent="1" source="da8WZ0yRhRTzq29A2Kj0-1">
          <mxGeometry width="50" height="50" relative="1" as="geometry">
            <mxPoint x="409" y="466" as="sourcePoint" />
            <mxPoint x="429" y="416" as="targetPoint" />
          </mxGeometry>
        </mxCell>
        <mxCell id="da8WZ0yRhRTzq29A2Kj0-5" value="Подтверждение заказа" style="rounded=1;whiteSpace=wrap;html=1;" vertex="1" parent="1">
          <mxGeometry x="369" y="416" width="120" height="60" as="geometry" />
        </mxCell>
        <mxCell id="da8WZ0yRhRTzq29A2Kj0-6" value="" style="endArrow=classic;html=1;rounded=0;exitX=0.5;exitY=1;exitDx=0;exitDy=0;" edge="1" parent="1" source="da8WZ0yRhRTzq29A2Kj0-5">
          <mxGeometry width="50" height="50" relative="1" as="geometry">
            <mxPoint x="409" y="466" as="sourcePoint" />
            <mxPoint x="429" y="556" as="targetPoint" />
          </mxGeometry>
        </mxCell>
        <mxCell id="da8WZ0yRhRTzq29A2Kj0-7" value="" style="html=1;whiteSpace=wrap;aspect=fixed;shape=isoRectangle;rotation=90;" vertex="1" parent="1">
          <mxGeometry x="400.66999999999996" y="566" width="56.67" height="34" as="geometry" />
        </mxCell>
        <mxCell id="da8WZ0yRhRTzq29A2Kj0-8" value="Добавление недостающей еды" style="rounded=1;whiteSpace=wrap;html=1;" vertex="1" parent="1">
          <mxGeometry x="559" y="553" width="120" height="60" as="geometry" />
        </mxCell>
        <mxCell id="da8WZ0yRhRTzq29A2Kj0-9" value="Оплата заказа" style="rounded=1;whiteSpace=wrap;html=1;" vertex="1" parent="1">
          <mxGeometry x="60" y="554.5" width="120" height="60" as="geometry" />
        </mxCell>
        <mxCell id="da8WZ0yRhRTzq29A2Kj0-10" value="" style="endArrow=classic;html=1;rounded=0;exitX=0.5;exitY=0.941;exitDx=0;exitDy=0;entryX=1;entryY=0.5;entryDx=0;entryDy=0;exitPerimeter=0;" edge="1" parent="1" source="da8WZ0yRhRTzq29A2Kj0-7" target="da8WZ0yRhRTzq29A2Kj0-9">
          <mxGeometry width="50" height="50" relative="1" as="geometry">
            <mxPoint x="439" y="486" as="sourcePoint" />
            <mxPoint x="439" y="566" as="targetPoint" />
          </mxGeometry>
        </mxCell>
        <mxCell id="da8WZ0yRhRTzq29A2Kj0-11" value="" style="endArrow=classic;html=1;rounded=0;exitX=0.5;exitY=0.059;exitDx=0;exitDy=0;entryX=0;entryY=0.5;entryDx=0;entryDy=0;exitPerimeter=0;" edge="1" parent="1" source="da8WZ0yRhRTzq29A2Kj0-7" target="da8WZ0yRhRTzq29A2Kj0-8">
          <mxGeometry width="50" height="50" relative="1" as="geometry">
            <mxPoint x="449" y="496" as="sourcePoint" />
            <mxPoint x="449" y="576" as="targetPoint" />
          </mxGeometry>
        </mxCell>
        <mxCell id="qBgJKQQ8QN35u_Wdl3RI-1" value="[заказ сформирован верно]" style="text;html=1;align=center;verticalAlign=middle;whiteSpace=wrap;rounded=0;" vertex="1" parent="1">
          <mxGeometry x="230" y="546" width="130" height="30" as="geometry" />
        </mxCell>
        <mxCell id="qBgJKQQ8QN35u_Wdl3RI-3" value="[несогласие с корзиной]" style="text;html=1;align=center;verticalAlign=middle;whiteSpace=wrap;rounded=0;" vertex="1" parent="1">
          <mxGeometry x="429" y="546" width="130" height="30" as="geometry" />
        </mxCell>
        <mxCell id="qBgJKQQ8QN35u_Wdl3RI-4" value="" style="endArrow=classic;html=1;rounded=0;exitX=0.5;exitY=0;exitDx=0;exitDy=0;entryX=1;entryY=0.5;entryDx=0;entryDy=0;" edge="1" parent="1" source="da8WZ0yRhRTzq29A2Kj0-8" target="da8WZ0yRhRTzq29A2Kj0-5">
          <mxGeometry width="50" height="50" relative="1" as="geometry">
            <mxPoint x="409" y="516" as="sourcePoint" />
            <mxPoint x="579" y="446" as="targetPoint" />
            <Array as="points">
              <mxPoint x="619" y="446" />
            </Array>
          </mxGeometry>
        </mxCell>
        <mxCell id="qBgJKQQ8QN35u_Wdl3RI-5" value="Выдача задачи курьеру" style="rounded=1;whiteSpace=wrap;html=1;" vertex="1" parent="1">
          <mxGeometry x="200" y="696" width="120" height="60" as="geometry" />
        </mxCell>
        <mxCell id="qBgJKQQ8QN35u_Wdl3RI-6" value="" style="endArrow=classic;html=1;rounded=0;exitX=0.5;exitY=1;exitDx=0;exitDy=0;entryX=0.004;entryY=0.516;entryDx=0;entryDy=0;entryPerimeter=0;" edge="1" parent="1" target="qBgJKQQ8QN35u_Wdl3RI-20">
          <mxGeometry width="50" height="50" relative="1" as="geometry">
            <mxPoint x="119.37" y="613" as="sourcePoint" />
            <mxPoint x="119.37" y="693" as="targetPoint" />
          </mxGeometry>
        </mxCell>
        <mxCell id="qBgJKQQ8QN35u_Wdl3RI-7" value="" style="endArrow=classic;html=1;rounded=0;exitX=1;exitY=0.5;exitDx=0;exitDy=0;" edge="1" parent="1" source="qBgJKQQ8QN35u_Wdl3RI-5">
          <mxGeometry width="50" height="50" relative="1" as="geometry">
            <mxPoint x="369" y="666" as="sourcePoint" />
            <mxPoint x="369" y="726" as="targetPoint" />
          </mxGeometry>
        </mxCell>
        <mxCell id="qBgJKQQ8QN35u_Wdl3RI-8" value="Доставка заказа" style="rounded=1;whiteSpace=wrap;html=1;" vertex="1" parent="1">
          <mxGeometry x="369.01" y="696" width="120" height="60" as="geometry" />
        </mxCell>
        <mxCell id="qBgJKQQ8QN35u_Wdl3RI-9" value="" style="endArrow=classic;html=1;rounded=0;exitX=0.5;exitY=1;exitDx=0;exitDy=0;" edge="1" parent="1">
          <mxGeometry width="50" height="50" relative="1" as="geometry">
            <mxPoint x="428" y="756" as="sourcePoint" />
            <mxPoint x="428" y="836" as="targetPoint" />
          </mxGeometry>
        </mxCell>
        <mxCell id="qBgJKQQ8QN35u_Wdl3RI-10" value="" style="html=1;whiteSpace=wrap;aspect=fixed;shape=isoRectangle;rotation=90;" vertex="1" parent="1">
          <mxGeometry x="400.66999999999996" y="846" width="56.67" height="34" as="geometry" />
        </mxCell>
        <mxCell id="qBgJKQQ8QN35u_Wdl3RI-11" value="" style="endArrow=classic;html=1;rounded=0;exitX=1.012;exitY=0.5;exitDx=0;exitDy=0;exitPerimeter=0;" edge="1" parent="1">
          <mxGeometry width="50" height="50" relative="1" as="geometry">
            <mxPoint x="444.0050000000001" y="862.51504" as="sourcePoint" />
            <mxPoint x="569" y="863" as="targetPoint" />
          </mxGeometry>
        </mxCell>
        <mxCell id="qBgJKQQ8QN35u_Wdl3RI-12" value="" style="endArrow=classic;html=1;rounded=0;exitX=0.5;exitY=1;exitDx=0;exitDy=0;exitPerimeter=0;entryX=1;entryY=0.5;entryDx=0;entryDy=0;" edge="1" parent="1" source="qBgJKQQ8QN35u_Wdl3RI-10" target="qBgJKQQ8QN35u_Wdl3RI-16">
          <mxGeometry width="50" height="50" relative="1" as="geometry">
            <mxPoint x="418.9950000000001" y="862.51504" as="sourcePoint" />
            <mxPoint x="289" y="863" as="targetPoint" />
          </mxGeometry>
        </mxCell>
        <mxCell id="qBgJKQQ8QN35u_Wdl3RI-13" value="[заказ успешно выполнен в срок]" style="text;html=1;align=center;verticalAlign=middle;whiteSpace=wrap;rounded=0;" vertex="1" parent="1">
          <mxGeometry x="439" y="826" width="130" height="30" as="geometry" />
        </mxCell>
        <mxCell id="qBgJKQQ8QN35u_Wdl3RI-15" value="[заказ не доставлен]" style="text;html=1;align=center;verticalAlign=middle;whiteSpace=wrap;rounded=0;" vertex="1" parent="1">
          <mxGeometry x="279" y="826" width="130" height="30" as="geometry" />
        </mxCell>
        <mxCell id="qBgJKQQ8QN35u_Wdl3RI-16" value="Разбирательство с курьером" style="rounded=1;whiteSpace=wrap;html=1;" vertex="1" parent="1">
          <mxGeometry x="60" y="833" width="120" height="60" as="geometry" />
        </mxCell>
        <mxCell id="qBgJKQQ8QN35u_Wdl3RI-18" value="" style="endArrow=classic;html=1;rounded=0;exitX=0.5;exitY=0;exitDx=0;exitDy=0;entryX=0.999;entryY=0.489;entryDx=0;entryDy=0;entryPerimeter=0;" edge="1" parent="1" source="qBgJKQQ8QN35u_Wdl3RI-16" target="qBgJKQQ8QN35u_Wdl3RI-20">
          <mxGeometry width="50" height="50" relative="1" as="geometry">
            <mxPoint x="159" y="806" as="sourcePoint" />
            <mxPoint x="209" y="756" as="targetPoint" />
          </mxGeometry>
        </mxCell>
        <mxCell id="qBgJKQQ8QN35u_Wdl3RI-20" value="" style="html=1;whiteSpace=wrap;aspect=fixed;shape=isoRectangle;rotation=90;" vertex="1" parent="1">
          <mxGeometry x="91.66999999999996" y="709" width="56.67" height="34" as="geometry" />
        </mxCell>
        <mxCell id="qBgJKQQ8QN35u_Wdl3RI-21" value="" style="endArrow=classic;html=1;rounded=0;exitX=0.503;exitY=0.029;exitDx=0;exitDy=0;entryX=0;entryY=0.5;entryDx=0;entryDy=0;exitPerimeter=0;" edge="1" parent="1" source="qBgJKQQ8QN35u_Wdl3RI-20" target="qBgJKQQ8QN35u_Wdl3RI-5">
          <mxGeometry width="50" height="50" relative="1" as="geometry">
            <mxPoint x="140" y="725.64" as="sourcePoint" />
            <mxPoint x="189" y="725.64" as="targetPoint" />
          </mxGeometry>
        </mxCell>
        <mxCell id="qBgJKQQ8QN35u_Wdl3RI-23" value="" style="ellipse;shape=doubleEllipse;whiteSpace=wrap;html=1;aspect=fixed;" vertex="1" parent="1">
          <mxGeometry x="569" y="843" width="40" height="40" as="geometry" />
        </mxCell>
        <mxCell id="qBgJKQQ8QN35u_Wdl3RI-25" value="" style="shape=waypoint;sketch=0;fillStyle=solid;size=6;pointerEvents=1;points=[];fillColor=none;resizable=0;rotatable=0;perimeter=centerPerimeter;snapToPoint=1;strokeWidth=14;" vertex="1" parent="1">
          <mxGeometry x="579" y="853" width="20" height="20" as="geometry" />
        </mxCell>
      </root>
    </mxGraphModel>
  </diagram>
  <diagram id="Pweo-jNcYF1wondNiMzU" name="Д_классов">
    <mxGraphModel grid="1" page="1" gridSize="10" guides="1" tooltips="1" connect="1" arrows="1" fold="1" pageScale="1" pageWidth="827" pageHeight="1169" math="0" shadow="0">
      <root>
        <mxCell id="0" />
        <mxCell id="1" parent="0" />
        <mxCell id="CmXZWZF0gOyxQuSmKXuf-1" value="Приложение" style="swimlane;fontStyle=0;align=center;verticalAlign=top;childLayout=stackLayout;horizontal=1;startSize=55;horizontalStack=0;resizeParent=1;resizeParentMax=0;resizeLast=0;collapsible=0;marginBottom=0;html=1;whiteSpace=wrap;" vertex="1" parent="1">
          <mxGeometry x="350" y="240" width="140" height="125" as="geometry" />
        </mxCell>
        <mxCell id="CmXZWZF0gOyxQuSmKXuf-5" value="&lt;div&gt;+Id: int&lt;/div&gt;&lt;div&gt;+Название: string&lt;/div&gt;+Версия: int" style="text;html=1;strokeColor=none;fillColor=none;align=left;verticalAlign=middle;spacingLeft=4;spacingRight=4;overflow=hidden;rotatable=0;points=[[0,0.5],[1,0.5]];portConstraint=eastwest;whiteSpace=wrap;" vertex="1" parent="CmXZWZF0gOyxQuSmKXuf-1">
          <mxGeometry y="55" width="140" height="45" as="geometry" />
        </mxCell>
        <mxCell id="CmXZWZF0gOyxQuSmKXuf-6" value="" style="line;strokeWidth=1;fillColor=none;align=left;verticalAlign=middle;spacingTop=-1;spacingLeft=3;spacingRight=3;rotatable=0;labelPosition=right;points=[];portConstraint=eastwest;" vertex="1" parent="CmXZWZF0gOyxQuSmKXuf-1">
          <mxGeometry y="100" width="140" height="25" as="geometry" />
        </mxCell>
        <mxCell id="CmXZWZF0gOyxQuSmKXuf-9" value="Курьер" style="swimlane;fontStyle=0;align=center;verticalAlign=top;childLayout=stackLayout;horizontal=1;startSize=55;horizontalStack=0;resizeParent=1;resizeParentMax=0;resizeLast=0;collapsible=0;marginBottom=0;html=1;whiteSpace=wrap;" vertex="1" parent="1">
          <mxGeometry x="560" y="472" width="180" height="225" as="geometry" />
        </mxCell>
        <mxCell id="CmXZWZF0gOyxQuSmKXuf-10" value="&lt;div&gt;+Id: int&lt;/div&gt;&lt;div&gt;+имя: string&lt;span style=&quot;color: rgba(0, 0, 0, 0); font-family: monospace; font-size: 0px; text-wrap: nowrap; background-color: initial;&quot;&gt;%3CmxGraphModel%3E%3Croot%3E%3CmxCell%20id%3D%220%22%2F%3E%3CmxCell%20id%3D%221%22%20parent%3D%220%22%2F%3E%3CmxCell%20id%3D%222%22%20value%3D%22%D0%9F%D1%80%D0%B8%D0%BB%D0%BE%D0%B6%D0%B5%D0%BD%D0%B8%D0%B5%22%20style%3D%22swimlane%3BfontStyle%3D0%3Balign%3Dcenter%3BverticalAlign%3Dtop%3BchildLayout%3DstackLayout%3Bhorizontal%3D1%3BstartSize%3D55%3BhorizontalStack%3D0%3BresizeParent%3D1%3BresizeParentMax%3D0%3BresizeLast%3D0%3Bcollapsible%3D0%3BmarginBottom%3D0%3Bhtml%3D1%3BwhiteSpace%3Dwrap%3B%22%20vertex%3D%221%22%20parent%3D%221%22%3E%3CmxGeometry%20x%3D%22330%22%20y%3D%22230%22%20width%3D%22140%22%20height%3D%22125%22%20as%3D%22geometry%22%2F%3E%3C%2FmxCell%3E%3CmxCell%20id%3D%223%22%20value%3D%22%26lt%3Bdiv%26gt%3B%2BId%3A%20int%26lt%3B%2Fdiv%26gt%3B%26lt%3Bdiv%26gt%3B%2B%D0%BD%D0%B0%D0%B7%D0%B2%D0%B0%D0%BD%D0%B8%D0%B5%3A%20string%26lt%3B%2Fdiv%26gt%3B%2B%D0%B2%D0%B5%D1%80%D1%81%D0%B8%D1%8F%3A%26amp%3Bnbsp%3B%22%20style%3D%22text%3Bhtml%3D1%3BstrokeColor%3Dnone%3BfillColor%3Dnone%3Balign%3Dleft%3BverticalAlign%3Dmiddle%3BspacingLeft%3D4%3BspacingRight%3D4%3Boverflow%3Dhidden%3Brotatable%3D0%3Bpoints%3D%5B%5B0%2C0.5%5D%2C%5B1%2C0.5%5D%5D%3BportConstraint%3Deastwest%3BwhiteSpace%3Dwrap%3B%22%20vertex%3D%221%22%20parent%3D%222%22%3E%3CmxGeometry%20y%3D%2255%22%20width%3D%22140%22%20height%3D%2245%22%20as%3D%22geometry%22%2F%3E%3C%2FmxCell%3E%3CmxCell%20id%3D%224%22%20value%3D%22%22%20style%3D%22line%3BstrokeWidth%3D1%3BfillColor%3Dnone%3Balign%3Dleft%3BverticalAlign%3Dmiddle%3BspacingTop%3D-1%3BspacingLeft%3D3%3BspacingRight%3D3%3Brotatable%3D0%3BlabelPosition%3Dright%3Bpoints%3D%5B%5D%3BportConstraint%3Deastwest%3B%22%20vertex%3D%221%22%20parent%3D%222%22%3E%3CmxGeometry%20y%3D%22100%22%20width%3D%22140%22%20height%3D%2225%22%20as%3D%22geometry%22%2F%3E%3C%2FmxCell%3E%3C%2Froot%3E%3C%2FmxGraphModel%3E&lt;/span&gt;&lt;/div&gt;+номер_телефона: int&lt;div&gt;&amp;nbsp;&lt;/div&gt;" style="text;html=1;strokeColor=none;fillColor=none;align=left;verticalAlign=middle;spacingLeft=4;spacingRight=4;overflow=hidden;rotatable=0;points=[[0,0.5],[1,0.5]];portConstraint=eastwest;whiteSpace=wrap;" vertex="1" parent="CmXZWZF0gOyxQuSmKXuf-9">
          <mxGeometry y="55" width="180" height="60" as="geometry" />
        </mxCell>
        <mxCell id="CmXZWZF0gOyxQuSmKXuf-11" value="" style="line;strokeWidth=1;fillColor=none;align=left;verticalAlign=middle;spacingTop=-1;spacingLeft=3;spacingRight=3;rotatable=0;labelPosition=right;points=[];portConstraint=eastwest;" vertex="1" parent="CmXZWZF0gOyxQuSmKXuf-9">
          <mxGeometry y="115" width="180" height="15" as="geometry" />
        </mxCell>
        <mxCell id="CmXZWZF0gOyxQuSmKXuf-12" value="&lt;div&gt;&lt;/div&gt;&lt;div&gt;+Взятие_заказа()&lt;/div&gt;&lt;div&gt;+Отмена взятого заказа()&amp;nbsp;&lt;/div&gt;&lt;div&gt;+Подтверждение доставки()&lt;/div&gt;" style="text;html=1;strokeColor=none;fillColor=none;align=left;verticalAlign=middle;spacingLeft=4;spacingRight=4;overflow=hidden;rotatable=0;points=[[0,0.5],[1,0.5]];portConstraint=eastwest;whiteSpace=wrap;" vertex="1" parent="CmXZWZF0gOyxQuSmKXuf-9">
          <mxGeometry y="130" width="180" height="95" as="geometry" />
        </mxCell>
        <mxCell id="CmXZWZF0gOyxQuSmKXuf-13" value="Клиент" style="swimlane;fontStyle=0;align=center;verticalAlign=top;childLayout=stackLayout;horizontal=1;startSize=55;horizontalStack=0;resizeParent=1;resizeParentMax=0;resizeLast=0;collapsible=0;marginBottom=0;html=1;whiteSpace=wrap;" vertex="1" parent="1">
          <mxGeometry x="110" y="472" width="190" height="225" as="geometry" />
        </mxCell>
        <mxCell id="CmXZWZF0gOyxQuSmKXuf-14" value="&lt;div&gt;+Id: int&lt;/div&gt;&lt;div&gt;+Имя: string&lt;span style=&quot;color: rgba(0, 0, 0, 0); font-family: monospace; font-size: 0px; text-wrap: nowrap; background-color: initial;&quot;&gt;%3CmxGraphModel%3E%3Croot%3E%3CmxCell%20id%3D%220%22%2F%3E%3CmxCell%20id%3D%221%22%20parent%3D%220%22%2F%3E%3CmxCell%20id%3D%222%22%20value%3D%22%D0%9F%D1%80%D0%B8%D0%BB%D0%BE%D0%B6%D0%B5%D0%BD%D0%B8%D0%B5%22%20style%3D%22swimlane%3BfontStyle%3D0%3Balign%3Dcenter%3BverticalAlign%3Dtop%3BchildLayout%3DstackLayout%3Bhorizontal%3D1%3BstartSize%3D55%3BhorizontalStack%3D0%3BresizeParent%3D1%3BresizeParentMax%3D0%3BresizeLast%3D0%3Bcollapsible%3D0%3BmarginBottom%3D0%3Bhtml%3D1%3BwhiteSpace%3Dwrap%3B%22%20vertex%3D%221%22%20parent%3D%221%22%3E%3CmxGeometry%20x%3D%22330%22%20y%3D%22230%22%20width%3D%22140%22%20height%3D%22125%22%20as%3D%22geometry%22%2F%3E%3C%2FmxCell%3E%3CmxCell%20id%3D%223%22%20value%3D%22%26lt%3Bdiv%26gt%3B%2BId%3A%20int%26lt%3B%2Fdiv%26gt%3B%26lt%3Bdiv%26gt%3B%2B%D0%BD%D0%B0%D0%B7%D0%B2%D0%B0%D0%BD%D0%B8%D0%B5%3A%20string%26lt%3B%2Fdiv%26gt%3B%2B%D0%B2%D0%B5%D1%80%D1%81%D0%B8%D1%8F%3A%26amp%3Bnbsp%3B%22%20style%3D%22text%3Bhtml%3D1%3BstrokeColor%3Dnone%3BfillColor%3Dnone%3Balign%3Dleft%3BverticalAlign%3Dmiddle%3BspacingLeft%3D4%3BspacingRight%3D4%3Boverflow%3Dhidden%3Brotatable%3D0%3Bpoints%3D%5B%5B0%2C0.5%5D%2C%5B1%2C0.5%5D%5D%3BportConstraint%3Deastwest%3BwhiteSpace%3Dwrap%3B%22%20vertex%3D%221%22%20parent%3D%222%22%3E%3CmxGeometry%20y%3D%2255%22%20width%3D%22140%22%20height%3D%2245%22%20as%3D%22geometry%22%2F%3E%3C%2FmxCell%3E%3CmxCell%20id%3D%224%22%20value%3D%22%22%20style%3D%22line%3BstrokeWidth%3D1%3BfillColor%3Dnone%3Balign%3Dleft%3BverticalAlign%3Dmiddle%3BspacingTop%3D-1%3BspacingLeft%3D3%3BspacingRight%3D3%3Brotatable%3D0%3BlabelPosition%3Dright%3Bpoints%3D%5B%5D%3BportConstraint%3Deastwest%3B%22%20vertex%3D%221%22%20parent%3D%222%22%3E%3CmxGeometry%20y%3D%22100%22%20width%3D%22140%22%20height%3D%2225%22%20as%3D%22geometry%22%2F%3E%3C%2FmxCell%3E%3C%2Froot%3E%3C%2FmxGraphModel%3E&lt;/span&gt;&lt;/div&gt;+НомерТелефона: int&lt;div&gt;+Адрес: string&lt;/div&gt;" style="text;html=1;strokeColor=none;fillColor=none;align=left;verticalAlign=middle;spacingLeft=4;spacingRight=4;overflow=hidden;rotatable=0;points=[[0,0.5],[1,0.5]];portConstraint=eastwest;whiteSpace=wrap;" vertex="1" parent="CmXZWZF0gOyxQuSmKXuf-13">
          <mxGeometry y="55" width="190" height="60" as="geometry" />
        </mxCell>
        <mxCell id="CmXZWZF0gOyxQuSmKXuf-15" value="" style="line;strokeWidth=1;fillColor=none;align=left;verticalAlign=middle;spacingTop=-1;spacingLeft=3;spacingRight=3;rotatable=0;labelPosition=right;points=[];portConstraint=eastwest;" vertex="1" parent="CmXZWZF0gOyxQuSmKXuf-13">
          <mxGeometry y="115" width="190" height="15" as="geometry" />
        </mxCell>
        <mxCell id="CmXZWZF0gOyxQuSmKXuf-16" value="&lt;div&gt;&lt;/div&gt;&lt;div&gt;+ДобавлениеБлюдВЗаказ()&lt;/div&gt;&lt;div&gt;+ОформлениеЗаказа()&lt;/div&gt;&lt;div&gt;+ОтслеживаниеСтатусаЗаказа()&lt;/div&gt;&lt;div&gt;+ОплатаЗакказа()&lt;/div&gt;" style="text;html=1;strokeColor=none;fillColor=none;align=left;verticalAlign=middle;spacingLeft=4;spacingRight=4;overflow=hidden;rotatable=0;points=[[0,0.5],[1,0.5]];portConstraint=eastwest;whiteSpace=wrap;" vertex="1" parent="CmXZWZF0gOyxQuSmKXuf-13">
          <mxGeometry y="130" width="190" height="95" as="geometry" />
        </mxCell>
        <mxCell id="CmXZWZF0gOyxQuSmKXuf-17" value="" style="endArrow=none;startArrow=none;endFill=0;startFill=0;endSize=8;html=1;verticalAlign=bottom;labelBackgroundColor=none;strokeWidth=3;rounded=0;exitX=0.999;exitY=0.116;exitDx=0;exitDy=0;exitPerimeter=0;" edge="1" parent="1" source="CmXZWZF0gOyxQuSmKXuf-5">
          <mxGeometry width="160" relative="1" as="geometry">
            <mxPoint x="484" y="312.15999999999997" as="sourcePoint" />
            <mxPoint x="640" y="470" as="targetPoint" />
            <Array as="points">
              <mxPoint x="640" y="300" />
            </Array>
          </mxGeometry>
        </mxCell>
        <mxCell id="CmXZWZF0gOyxQuSmKXuf-18" value="" style="endArrow=none;startArrow=none;endFill=0;startFill=0;endSize=8;html=1;verticalAlign=bottom;labelBackgroundColor=none;strokeWidth=3;rounded=0;exitX=0.015;exitY=0.1;exitDx=0;exitDy=0;exitPerimeter=0;entryX=0.5;entryY=0;entryDx=0;entryDy=0;" edge="1" parent="1" source="CmXZWZF0gOyxQuSmKXuf-5" target="CmXZWZF0gOyxQuSmKXuf-13">
          <mxGeometry width="160" relative="1" as="geometry">
            <mxPoint x="340" y="310" as="sourcePoint" />
            <mxPoint x="196" y="480" as="targetPoint" />
            <Array as="points">
              <mxPoint x="205" y="300" />
            </Array>
          </mxGeometry>
        </mxCell>
        <mxCell id="CmXZWZF0gOyxQuSmKXuf-19" value="" style="endArrow=none;startArrow=none;endFill=0;startFill=0;endSize=8;html=1;verticalAlign=bottom;labelBackgroundColor=none;strokeWidth=3;rounded=0;" edge="1" parent="1">
          <mxGeometry width="160" relative="1" as="geometry">
            <mxPoint x="300" y="600" as="sourcePoint" />
            <mxPoint x="560" y="600" as="targetPoint" />
          </mxGeometry>
        </mxCell>
        <mxCell id="CmXZWZF0gOyxQuSmKXuf-20" value="+1" style="text;html=1;align=center;verticalAlign=middle;whiteSpace=wrap;rounded=0;" vertex="1" parent="1">
          <mxGeometry x="280" y="260" width="60" height="30" as="geometry" />
        </mxCell>
        <mxCell id="CmXZWZF0gOyxQuSmKXuf-22" value="+1" style="text;html=1;align=center;verticalAlign=middle;whiteSpace=wrap;rounded=0;" vertex="1" parent="1">
          <mxGeometry x="500" y="260" width="60" height="30" as="geometry" />
        </mxCell>
        <mxCell id="CmXZWZF0gOyxQuSmKXuf-23" value="+1..*" style="text;html=1;align=center;verticalAlign=middle;whiteSpace=wrap;rounded=0;" vertex="1" parent="1">
          <mxGeometry x="140" y="440" width="60" height="30" as="geometry" />
        </mxCell>
        <mxCell id="CmXZWZF0gOyxQuSmKXuf-24" value="+1..*" style="text;html=1;align=center;verticalAlign=middle;whiteSpace=wrap;rounded=0;" vertex="1" parent="1">
          <mxGeometry x="640" y="440" width="60" height="30" as="geometry" />
        </mxCell>
        <mxCell id="CmXZWZF0gOyxQuSmKXuf-25" value="+1" style="text;html=1;align=center;verticalAlign=middle;whiteSpace=wrap;rounded=0;" vertex="1" parent="1">
          <mxGeometry x="310" y="570" width="60" height="30" as="geometry" />
        </mxCell>
        <mxCell id="CmXZWZF0gOyxQuSmKXuf-26" value="+1" style="text;html=1;align=center;verticalAlign=middle;whiteSpace=wrap;rounded=0;" vertex="1" parent="1">
          <mxGeometry x="490" y="570" width="60" height="30" as="geometry" />
        </mxCell>
      </root>
    </mxGraphModel>
  </diagram>
</mxfile>
